# xmcd
#
# Track frame offsets:
#	150
#	11342
#	22835
#	50129
#	75420
#	92017
#	104206
#	118826
#	136201
#	149115
#	159236
#	190981
#	201766
#	221185
#	240625
#	253611
#	264457
#	287233
#	311404
#	328806
#
# Disc length: 4544 seconds
#
# Revision: 0
# Processed by: cddbd v1.4PL0 Copyright (c) Steve Scherf et al.
# Submitted via: audiograbber 1.80
#
DISCID=2a11be14
DTITLE=James Cotton - Best
DYEAR=1900
DGENRE=
TTITLE0=Turn oOn Your Lovelight
TTITLE1=Don`t Star Me Talkin`
TTITLE2=The Creeper
TTITLE3=Sweet Sixteen
TTITLE4=The Coach`s Better Day
TTITLE5=Off the Wall
TTITLE6=Feeling` Good
TTITLE7=Something On Your Mind
TTITLE8=Knock On Wood
TTITLE9=Oh, Why?
TTITLE10=Back to St.Louis
TTITLE11=Soul Survivor
TTITLE12=Heart Attack
TTITLE13=Fallin` Rain
TTITLE14=Lovin` Cup
TTITLE15=She`s Murder (aka Murder in the First Degree)
TTITLE16=Jelly, Jelly
TTITLE17=Blues in My Sleep
TTITLE18=Down at Your Buryn`
TTITLE19=Good Time Charlie
EXTD=
EXTT0=
EXTT1=
EXTT2=
EXTT3=
EXTT4=
EXTT5=
EXTT6=
EXTT7=
EXTT8=
EXTT9=
EXTT10=
EXTT11=
EXTT12=
EXTT13=
EXTT14=
EXTT15=
EXTT16=
EXTT17=
EXTT18=
EXTT19=
PLAYORDER=
